<?xml version="1.0" encoding="UTF-8"?>
<svg width="700pt" height="700pt" version="1.1" viewBox="0 0 700 700" xmlns="http://www.w3.org/2000/svg" xmlns:xlink="http://www.w3.org/1999/xlink">
 <defs>
  <symbol id="g" overflow="visible">
   <path d="m39.078-2.3281c-2.0117 1.043-4.1094 1.8281-6.2969 2.3594s-4.4648 0.79688-6.8281 0.79688c-7.0859 0-12.699-1.9766-16.844-5.9375-4.1367-3.957-6.2031-9.3281-6.2031-16.109 0-6.7891 2.0664-12.164 6.2031-16.125 4.1445-3.9688 9.7578-5.9531 16.844-5.9531 2.3633 0 4.6406 0.26562 6.8281 0.79688s4.2852 1.3242 6.2969 2.375v8.7969c-2.0312-1.3828-4.0391-2.3984-6.0156-3.0469-1.9688-0.64453-4.0469-0.96875-6.2344-0.96875-3.9062 0-6.9844 1.2578-9.2344 3.7656-2.2422 2.5-3.3594 5.9531-3.3594 10.359 0 4.3867 1.1172 7.8359 3.3594 10.344 2.25 2.5 5.3281 3.75 9.2344 3.75 2.1875 0 4.2656-0.32031 6.2344-0.96875 1.9766-0.64453 3.9844-1.6602 6.0156-3.0469z"/>
  </symbol>
  <symbol id="f" overflow="visible">
   <path d="m16.031-40.953v9.0625h10.516v7.2812h-10.516v13.531c0 1.4805 0.28906 2.4805 0.875 3 0.59375 0.52344 1.7656 0.78125 3.5156 0.78125h5.2344v7.2969h-8.7344c-4.0312 0-6.8867-0.83594-8.5625-2.5156-1.6797-1.6875-2.5156-4.5391-2.5156-8.5625v-13.531h-5.0781v-7.2812h5.0781v-9.0625z"/>
  </symbol>
  <symbol id="e" overflow="visible">
   <path d="m26.594-27.234v-17.078h10.266v44.312h-10.266v-4.6094c-1.3984 1.875-2.9453 3.25-4.6406 4.125-1.6875 0.875-3.6406 1.3125-5.8594 1.3125-3.9297 0-7.1562-1.5625-9.6875-4.6875-2.5234-3.125-3.7812-7.1445-3.7812-12.062 0-4.9141 1.2578-8.9375 3.7812-12.062 2.5312-3.125 5.7578-4.6875 9.6875-4.6875 2.1953 0 4.1445 0.44531 5.8438 1.3281 1.707 0.88672 3.2578 2.2578 4.6562 4.1094zm-6.7188 20.656c2.1875 0 3.8516-0.79688 5-2.3906 1.1445-1.5938 1.7188-3.9102 1.7188-6.9531 0-3.0391-0.57422-5.3594-1.7188-6.9531-1.1484-1.5938-2.8125-2.3906-5-2.3906-2.168 0-3.8242 0.79688-4.9688 2.3906-1.1484 1.5938-1.7188 3.9141-1.7188 6.9531 0 3.043 0.57031 5.3594 1.7188 6.9531 1.1445 1.5938 2.8008 2.3906 4.9688 2.3906z"/>
  </symbol>
  <symbol id="d" overflow="visible">
   <path d="m21.875-6.5781c2.1758 0 3.8359-0.79688 4.9844-2.3906 1.1562-1.5938 1.7344-3.9102 1.7344-6.9531 0-3.0391-0.57812-5.3594-1.7344-6.9531-1.1484-1.5938-2.8086-2.3906-4.9844-2.3906-2.1875 0-3.8672 0.80469-5.0312 2.4062-1.168 1.6055-1.75 3.918-1.75 6.9375 0 3.0234 0.58203 5.3359 1.75 6.9375 1.1641 1.6055 2.8438 2.4062 5.0312 2.4062zm-6.7812-20.656c1.4062-1.8516 2.9609-3.2227 4.6719-4.1094 1.707-0.88281 3.6719-1.3281 5.8906-1.3281 3.9375 0 7.1641 1.5625 9.6875 4.6875 2.5195 3.125 3.7812 7.1484 3.7812 12.062 0 4.918-1.2617 8.9375-3.7812 12.062-2.5234 3.125-5.75 4.6875-9.6875 4.6875-2.2188 0-4.1836-0.44531-5.8906-1.3281-1.7109-0.88281-3.2656-2.2539-4.6719-4.1094v4.6094h-10.188v-44.312h10.188z"/>
  </symbol>
  <symbol id="c" overflow="visible">
   <path d="m34.953-41.188v9c-2.3438-1.0391-4.625-1.8281-6.8438-2.3594s-4.3203-0.79688-6.2969-0.79688c-2.6172 0-4.5547 0.35938-5.8125 1.0781-1.25 0.71875-1.875 1.8398-1.875 3.3594 0 1.1484 0.42188 2.0391 1.2656 2.6719 0.84375 0.63672 2.3789 1.1836 4.6094 1.6406l4.6719 0.9375c4.7188 0.94922 8.0703 2.3906 10.062 4.3281 2 1.9375 3 4.6875 3 8.25 0 4.6992-1.3906 8.1953-4.1719 10.484-2.7812 2.2812-7.0312 3.4219-12.75 3.4219-2.6875 0-5.3906-0.26172-8.1094-0.78125-2.7188-0.50781-5.4336-1.2656-8.1406-2.2656v-9.2656c2.707 1.4492 5.3281 2.5391 7.8594 3.2656 2.5391 0.73047 4.9883 1.0938 7.3438 1.0938 2.3945 0 4.2266-0.39453 5.5-1.1875 1.2695-0.80078 1.9062-1.9414 1.9062-3.4219 0-1.332-0.43359-2.3594-1.2969-3.0781-0.86719-0.71875-2.5898-1.3633-5.1719-1.9375l-4.2344-0.9375c-4.2617-0.90625-7.375-2.3516-9.3438-4.3438-1.9609-2-2.9375-4.6914-2.9375-8.0781 0-4.2266 1.3633-7.4844 4.0938-9.7656 2.7383-2.2812 6.6719-3.4219 11.797-3.4219 2.332 0 4.7344 0.17969 7.2031 0.53125 2.4688 0.35547 5.0234 0.88281 7.6719 1.5781z"/>
  </symbol>
  <symbol id="b" overflow="visible">
   <path d="m4.9062-31.891h10.188v31.891h-10.188zm0-12.422h10.188v8.3125h-10.188z"/>
  </symbol>
  <symbol id="a" overflow="visible">
   <path d="m22.391-26.062c1.7266 0 3.0352-0.37891 3.9219-1.1406 0.89453-0.75781 1.3438-1.8789 1.3438-3.3594 0-1.457-0.44922-2.5703-1.3438-3.3438-0.88672-0.76953-2.1953-1.1562-3.9219-1.1562h-6.0781v9zm0.35938 18.594c2.207 0 3.8633-0.46094 4.9688-1.3906 1.1133-0.92578 1.6719-2.332 1.6719-4.2188 0-1.832-0.55469-3.207-1.6562-4.125-1.0938-0.92578-2.7578-1.3906-4.9844-1.3906h-6.4375v11.125zm10.203-15.281c2.3516 0.67969 4.1758 1.9375 5.4688 3.7812 1.2891 1.8438 1.9375 4.1055 1.9375 6.7812 0 4.1055-1.3867 7.1641-4.1562 9.1719-2.7734 2.0117-6.9922 3.0156-12.656 3.0156h-18.188v-42.516h16.453c5.9062 0 10.18 0.89062 12.828 2.6719 2.6562 1.7812 3.9844 4.6406 3.9844 8.5781 0 2.0625-0.48438 3.8242-1.4531 5.2812-0.96875 1.4492-2.375 2.5273-4.2188 3.2344z"/>
  </symbol>
 </defs>
 <g>
  <path d="m140.04 90.961v378.07h301.96v-378.07h-301.96zm29.168 29.168h243.63v319.74h-243.63z"/>
  <path d="m412.84 90.961v378.07h86.656v-378.07h-86.656zm29.168 29.168h28.324v319.74h-28.324z"/>
  <path d="m470.33 90.961v378.07h86.656v-378.07h-86.656zm29.168 29.168h28.324v319.74h-28.324z"/>
  <path d="m215.92 177.57v29.168h150.21v-29.168z"/>
  <path d="m412.84 177.57v29.168h86.656v-29.168z"/>
  <path d="m545.25 266.74-75.059 0.73047 0.27344 29.168 75.059-0.73047z"/>
  <use x="70" y="735" xlink:href="#g"/>
  <use x="220.503906" y="735" xlink:href="#f"/>
  <use x="287.953125" y="735" xlink:href="#e"/>
  <use x="350.015625" y="735" xlink:href="#d"/>
  <use x="450.105469" y="735" xlink:href="#c"/>
  <use x="560.25" y="735" xlink:href="#b"/>
  <use x="600.554688" y="735" xlink:href="#a"/>
 </g>
</svg>
